<svg xmlns="http://www.w3.org/2000/svg" width="370" height="748" viewBox="0 0 370 748">
  <g fill="none" fill-rule="evenodd">
    <rect width="336" height="651" x="19" y="27" fill="#6B6B6B"/>
    <path fill="#3E3D3D" d="M335,0 C354.329966,-3.55085719e-15 370,15.6700338 370,35 L370,713 C370,732.329966 354.329966,748 335,748 L35,748 C15.6700338,748 2.36723813e-15,732.329966 0,713 L0,35 C-2.36723813e-15,15.6700338 15.6700338,3.55085719e-15 35,0 L335,0 Z M345,89 L25,89 L25,659 L345,659 L345,89 Z"/>
    <circle cx="185.5" cy="704.5" r="16.5" fill="#838383"/>
    <rect width="8" height="31" x="181" y="31" fill="#838383" rx="4" transform="rotate(90 185 46.5)"/>
  </g>
</svg>
