<svg xmlns="http://www.w3.org/2000/svg" width="930" height="662" viewBox="0 0 930 662">
  <g fill="none" fill-rule="evenodd">
    <rect width="818" height="611" x="61" y="27" fill="#6B6B6B"/>
    <path fill="#3E3D3D" d="M884,0 C909.405098,-4.66684088e-15 930,20.5949015 930,46 L930,616 C930,641.405098 909.405098,662 884,662 L46,662 C20.5949015,662 3.11122726e-15,641.405098 0,616 L0,46 C-3.11122726e-15,20.5949015 20.5949015,4.66684088e-15 46,0 L884,0 Z M861,34 L69,34 L69,628 L861,628 L861,34 Z"/>
    <circle cx="895.5" cy="331.5" r="16.5" fill="#838383"/>
    <rect width="8" height="31" x="31" y="315" fill="#838383" rx="4"/>
  </g>
</svg>
