<svg width="1162" height="836" viewBox="0 0 1162 836" fill="none" xmlns="http://www.w3.org/2000/svg">
  <g clip-path="url(#clip0_5_20)">
    <path d="M1111 21H58V819H1111V21Z" fill="#6B6B6B"/>
    <path fill-rule="evenodd" clip-rule="evenodd" d="M1116 0C1141.41 0 1162 20.5949 1162 46V790C1162 815.405 1141.41 836 1116 836H46C20.5949 836 0 815.405 0 790V46C0 20.5949 20.5949 0 46 0H1116ZM1093 34H69V802H1093V34Z" fill="#3E3D3D"/>
    <path d="M1127.5 435C1136.61 435 1144 427.613 1144 418.5C1144 409.387 1136.61 402 1127.5 402C1118.39 402 1111 409.387 1111 418.5C1111 427.613 1118.39 435 1127.5 435Z" fill="#838383"/>
    <path d="M39 407C39 404.791 37.2091 403 35 403C32.7909 403 31 404.791 31 407V430C31 432.209 32.7909 434 35 434C37.2091 434 39 432.209 39 430V407Z" fill="#838383"/>
  </g>
  <defs>
    <clipPath id="clip0_5_20">
      <rect width="1162" height="836" fill="white"/>
    </clipPath>
  </defs>
</svg>
